<?xml version="1.0" encoding="UTF-8" standalone="no"?>
<!DOCTYPE svg PUBLIC "-//W3C//DTD SVG 1.1//EN" "http://www.w3.org/Graphics/SVG/1.1/DTD/svg11.dtd">
<svg width="100%" height="100%" viewBox="0 0 448 512" version="1.1" xmlns="http://www.w3.org/2000/svg" xmlns:xlink="http://www.w3.org/1999/xlink" xml:space="preserve" xmlns:serif="http://www.serif.com/" style="fill-rule:evenodd;clip-rule:evenodd;stroke-linejoin:round;stroke-miterlimit:1.41421;">
    <path d="M0,84L0,56C0,42.7 10.7,32 24,32L136,32L145.4,13.3C149.4,5.1 157.7,0 166.8,0L281.1,0C290.2,0 298.5,5.1 302.6,13.3L312,32L424,32C437.3,32 448,42.7 448,56L448,84C448,90.6 442.6,96 436,96L12,96C5.4,96 0,90.6 0,84ZM416,140L416,464C416,490.5 394.5,512 368,512L80,512C53.5,512 32,490.5 32,464L32,140C32,133.4 37.4,128 44,128L404,128C410.6,128 416,133.4 416,140ZM144,208C144,199.2 136.8,192 128,192C119.2,192 112,199.2 112,208L112,432C112,440.8 119.2,448 128,448C136.8,448 144,440.8 144,432L144,208ZM240,208C240,199.2 232.8,192 224,192C215.2,192 208,199.2 208,208L208,432C208,440.8 215.2,448 224,448C232.8,448 240,440.8 240,432L240,208ZM336,208C336,199.2 328.8,192 320,192C311.2,192 304,199.2 304,208L304,432C304,440.8 311.2,448 320,448C328.8,448 336,440.8 336,432L336,208Z" style="fill:white;fill-rule:nonzero;stroke:white;stroke-width:1px;"/>
</svg>
